<?xml version="1.0" encoding="UTF-8"?>
<svg width="32" height="32" viewBox="0 0 32 32" fill="none" xmlns="http://www.w3.org/2000/svg">
  <rect width="32" height="32" rx="6" fill="#0F3460"/>
  <path d="M19.5 11.5C19.5 13.5 18.5 16 14.5 16C10.5 16 9.5 13.5 9.5 11.5C9.5 9.5 11 8 14.5 8C18 8 19.5 9.5 19.5 11.5Z" fill="white"/>
  <path d="M19.5 11.5C19.5 13.5 18.5 16 14.5 16C10.5 16 9.5 13.5 9.5 11.5" stroke="white" stroke-width="2"/>
  <path d="M9.5 20.5C9.5 18.5 10.5 16 14.5 16C18.5 16 19.5 18.5 19.5 20.5C19.5 22.5 18 24 14.5 24C11 24 9.5 22.5 9.5 20.5Z" fill="#0F3460"/>
  <path d="M9.5 20.5C9.5 18.5 10.5 16 14.5 16C18.5 16 19.5 18.5 19.5 20.5" stroke="white" stroke-width="2"/>
</svg>
